# xmcd CD database file
#
# Track frame offsets:
#	150
#	13887
#	28257
#	42425
#	55512
#	72125
#	83850
#	96400
#	113537
#	129862
#	144362
#	152250
#	167457
#	180675
#	192750
#	208925
#
# Disc length: 2963 seconds
#
# Revision: 0
# Processed by: cddbd v1.4PL0 Copyright (c) Steve Scherf et al.
# Submitted via: CDex 1.50beta10
#
DISCID=cd0b9110
DTITLE=Various Artist - 典藏國語老歌二
DYEAR=1900
DGENRE=國語老歌
TTITLE0=藍色的夢
TTITLE1=生命如花籃
TTITLE2=小河灣灣
TTITLE3=月圓花好
TTITLE4=阿籣那
TTITLE5=夢裡相思
TTITLE6=小時候
TTITLE7=兩相依
TTITLE8=癡情淚
TTITLE9=東山漂雨西山晴
TTITLE10=又像細語又像風
TTITLE11=夢醒不了情
TTITLE12=溫情滿人間
TTITLE13=秋詞
TTITLE14=祝你順風
TTITLE15=我是一隻畫眉鳥
EXTD=
EXTT0=
EXTT1=
EXTT2=
EXTT3=
EXTT4=
EXTT5=
EXTT6=
EXTT7=
EXTT8=
EXTT9=
EXTT10=
EXTT11=
EXTT12=
EXTT13=
EXTT14=
EXTT15=
PLAYORDER=
